<?xml version="1.0" encoding="UTF-8" standalone="no"?>
<!-- Created with Inkscape (http://www.inkscape.org/) -->

<svg
   width="24"
   height="24"
   viewBox="-0.5 -0.5 6 6"
   version="1.1"
   id="svg2542"
   xmlns="http://www.w3.org/2000/svg"
   xmlns:svg="http://www.w3.org/2000/svg">
  <defs
     id="defs2539" />
  <g
     id="layer1"
     transform="translate(-151.61401,-69.148247)">
    <path
       id="path2411"
       style="stroke-width:0.00661458"
       d="m 155.35797,69.148247 v 0.910021 h -0.91003 v 0.529167 h 0.91003 v 0.910021 h 0.52916 v -0.910021 h 0.91002 v -0.529167 h -0.91002 v -0.910021 z m -2.81792,0.910021 c -0.0838,0 -0.15954,0.02437 -0.22789,0.07286 -0.0684,0.04851 -0.11617,0.112344 -0.14263,0.191719 l -0.55552,1.5875 v 2.116667 c 0,0.07495 0.0252,0.137885 0.076,0.188619 0.0507,0.05073 0.11366,0.07596 0.18862,0.07596 h 0.26459 c 0.075,0 0.1379,-0.02524 0.18861,-0.07596 0.0507,-0.05071 0.076,-0.113652 0.076,-0.188619 v -0.264579 h 3.175 v 0.264583 c 0,0.07495 0.0252,0.137885 0.076,0.188619 0.0507,0.05073 0.11366,0.07596 0.18862,0.07596 h 0.26459 c 0.075,0 0.1379,-0.02524 0.18861,-0.07596 0.0507,-0.05071 0.076,-0.113652 0.076,-0.188619 v -2.029852 h -0.52917 v 1.236102 h -3.70416 v -1.322917 h 2.71404 v -0.529166 h -2.50217 l 0.2775,-0.79375 h 1.3162 v -0.529167 z m 0.26458,2.116667 c -0.11024,0 -0.20395,0.03859 -0.28112,0.115755 -0.0772,0.07717 -0.11575,0.170878 -0.11575,0.28112 0,0.110246 0.0386,0.203954 0.11575,0.28112 0.0772,0.07717 0.17088,0.115755 0.28112,0.115755 0.11024,0 0.20395,-0.03858 0.28112,-0.115755 0.0772,-0.07717 0.11576,-0.170874 0.11576,-0.28112 0,-0.110242 -0.0386,-0.203946 -0.11576,-0.28112 -0.0772,-0.07717 -0.17088,-0.115755 -0.28112,-0.115755 z m 2.38125,0 c -0.11024,0 -0.20395,0.03859 -0.28112,0.115755 -0.0772,0.07717 -0.11575,0.170878 -0.11575,0.28112 0,0.110246 0.0386,0.203954 0.11575,0.28112 0.0772,0.07717 0.17088,0.115755 0.28112,0.115755 0.11024,0 0.20395,-0.03858 0.28112,-0.115755 0.0772,-0.07717 0.11576,-0.170874 0.11576,-0.28112 0,-0.110242 -0.0386,-0.203946 -0.11576,-0.28112 -0.0772,-0.07717 -0.17088,-0.115755 -0.28112,-0.115755 z" />
  </g>
</svg>
