<?xml version="1.0" encoding="UTF-8"?>
<!-- Created with Inkscape (http://www.inkscape.org/) -->
<svg width="6.8in" height="9.8in" version="1.1" viewBox="0 0 172.72 248.92" xmlns="http://www.w3.org/2000/svg" xmlns:xlink="http://www.w3.org/1999/xlink">
 <defs>
  <linearGradient id="linearGradient1184">
   <stop offset="#ffff00"/>
   <stop stop-opacity="0" offset="1"/>
  </linearGradient>
  <linearGradient id="linearGradient1186" x1="34.079" x2="37.079" y1="185.47" y2="185.47" gradientTransform="matrix(30.074 0 0 .033468 -1215.3 25.295)" gradientUnits="userSpaceOnUse" xlink:href="#linearGradient1184"/>
 </defs>
 <g transform="matrix(12 0 0 1.5 -362.47 -30.52)">
  <g stroke-linejoin="round">
   <rect transform="rotate(-90)" x="-190.44" y="30.002" width="90.223" height="3" fill="url(#linearGradient1186)" stroke-width="1.0219" style="paint-order:stroke fill markers"/>
   <rect x="30.002" y="190.44" width="3" height="54.2" stroke-width="1.7549" style="paint-order:stroke fill markers"/>
  </g>
 </g>
 <g transform="matrix(12 0 0 1.5 -251.48 -43.712)" stroke-linejoin="round">
  <rect transform="rotate(-90)" x="-190.44" y="30.002" width="90.223" height="3" fill="url(#linearGradient1186)" stroke-width="1.0219" style="paint-order:stroke fill markers"/>
  <rect x="30.002" y="190.44" width="3" height="54.2" stroke-width="1.7549" style="paint-order:stroke fill markers"/>
 </g>
 <g transform="matrix(6 0 0 1.5 -89.463 -28.279)" stroke-linejoin="round">
  <rect transform="rotate(-90)" x="-190.44" y="30.002" width="90.223" height="3" fill="url(#linearGradient1186)" stroke-width="1.0219" style="paint-order:stroke fill markers"/>
  <rect x="30.002" y="190.44" width="3" height="54.2" stroke-width="1.7549" style="paint-order:stroke fill markers"/>
 </g>
 <g transform="matrix(3 0 0 1.5 -62.453 -58.233)" stroke-linejoin="round">
  <rect transform="rotate(-90)" x="-190.44" y="30.002" width="90.223" height="3" fill="url(#linearGradient1186)" stroke-width="1.0219" style="paint-order:stroke fill markers"/>
  <rect x="30.002" y="190.44" width="3" height="54.2" stroke-width="1.7549" style="paint-order:stroke fill markers"/>
 </g>
 <g transform="matrix(3 0 0 1.5 -8.4531 -9.8247)" stroke-linejoin="round">
  <rect transform="rotate(-90)" x="-190.44" y="30.002" width="90.223" height="3" fill="url(#linearGradient1186)" stroke-width="1.0219" style="paint-order:stroke fill markers"/>
  <rect x="30.002" y="190.44" width="3" height="54.2" stroke-width="1.7549" style="paint-order:stroke fill markers"/>
 </g>
 <g transform="matrix(3 0 0 1.5 -92.45 -68.366)" stroke-linejoin="round">
  <rect transform="rotate(-90)" x="-190.44" y="30.002" width="90.223" height="3" fill="url(#linearGradient1186)" stroke-width="1.0219" style="paint-order:stroke fill markers"/>
  <rect x="30.002" y="190.44" width="3" height="54.2" stroke-width="1.7549" style="paint-order:stroke fill markers"/>
 </g>
 <g transform="matrix(1.5 0 0 1.5 -47.447 -71.725)" stroke-linejoin="round">
  <rect transform="rotate(-90)" x="-190.44" y="30.002" width="90.223" height="3" fill="url(#linearGradient1186)" stroke-width="1.0219" style="paint-order:stroke fill markers"/>
  <rect x="30.002" y="190.44" width="3" height="54.2" stroke-width="1.7549" style="paint-order:stroke fill markers"/>
 </g>
 <g transform="matrix(1.5 0 0 1.5 -38.447 -123.07)" stroke-linejoin="round">
  <rect transform="rotate(-90)" x="-190.44" y="30.002" width="90.223" height="3" fill="url(#linearGradient1186)" stroke-width="1.0219" style="paint-order:stroke fill markers"/>
  <rect x="30.002" y="190.44" width="3" height="54.2" stroke-width="1.7549" style="paint-order:stroke fill markers"/>
 </g>
 <g transform="matrix(1.5 0 0 1.5 -29.45 -100.29)" stroke-linejoin="round">
  <rect transform="rotate(-90)" x="-190.44" y="30.002" width="90.223" height="3" fill="url(#linearGradient1186)" stroke-width="1.0219" style="paint-order:stroke fill markers"/>
  <rect x="30.002" y="190.44" width="3" height="54.2" stroke-width="1.7549" style="paint-order:stroke fill markers"/>
 </g>
 <g transform="matrix(1.5 0 0 1.5 -8.4505 -94.96)" stroke-linejoin="round">
  <rect transform="rotate(-90)" x="-190.44" y="30.002" width="90.223" height="3" fill="url(#linearGradient1186)" stroke-width="1.0219" style="paint-order:stroke fill markers"/>
  <rect x="30.002" y="190.44" width="3" height="54.2" stroke-width="1.7549" style="paint-order:stroke fill markers"/>
 </g>
 <g transform="matrix(1.5 0 0 1.5 .54969 -64.695)" stroke-linejoin="round">
  <rect transform="rotate(-90)" x="-190.44" y="30.002" width="90.223" height="3" fill="url(#linearGradient1186)" stroke-width="1.0219" style="paint-order:stroke fill markers"/>
  <rect x="30.002" y="190.44" width="3" height="54.2" stroke-width="1.7549" style="paint-order:stroke fill markers"/>
 </g>
 <g transform="matrix(1.5 0 0 1.5 9.5496 -2.6379)" stroke-linejoin="round">
  <rect transform="rotate(-90)" x="-190.44" y="30.002" width="90.223" height="3" fill="url(#linearGradient1186)" stroke-width="1.0219" style="paint-order:stroke fill markers"/>
  <rect x="30.002" y="190.44" width="3" height="54.2" stroke-width="1.7549" style="paint-order:stroke fill markers"/>
 </g>
 <g transform="matrix(1.5 0 0 1.5 18.547 -36.407)" stroke-linejoin="round">
  <rect transform="rotate(-90)" x="-190.44" y="30.002" width="90.223" height="3" fill="url(#linearGradient1186)" stroke-width="1.0219" style="paint-order:stroke fill markers"/>
  <rect x="30.002" y="190.44" width="3" height="54.2" stroke-width="1.7549" style="paint-order:stroke fill markers"/>
 </g>
 <g transform="matrix(1.5 0 0 1.5 27.547 -39.805)" stroke-linejoin="round">
  <rect transform="rotate(-90)" x="-190.44" y="30.002" width="90.223" height="3" fill="url(#linearGradient1186)" stroke-width="1.0219" style="paint-order:stroke fill markers"/>
  <rect x="30.002" y="190.44" width="3" height="54.2" stroke-width="1.7549" style="paint-order:stroke fill markers"/>
 </g>
 <g transform="matrix(1.5 0 0 1.5 36.55 -82.946)" stroke-linejoin="round">
  <rect transform="rotate(-90)" x="-190.44" y="30.002" width="90.223" height="3" fill="url(#linearGradient1186)" stroke-width="1.0219" style="paint-order:stroke fill markers"/>
  <rect x="30.002" y="190.44" width="3" height="54.2" stroke-width="1.7549" style="paint-order:stroke fill markers"/>
 </g>
 <g transform="matrix(1.5 0 0 1.5 45.55 -48.434)" stroke-linejoin="round">
  <rect transform="rotate(-90)" x="-190.44" y="30.002" width="90.223" height="3" fill="url(#linearGradient1186)" stroke-width="1.0219" style="paint-order:stroke fill markers"/>
  <rect x="30.002" y="190.44" width="3" height="54.2" stroke-width="1.7549" style="paint-order:stroke fill markers"/>
 </g>
 <g transform="matrix(1.5 0 0 1.5 54.547 -20.607)" stroke-linejoin="round">
  <rect transform="rotate(-90)" x="-190.44" y="30.002" width="90.223" height="3" fill="url(#linearGradient1186)" stroke-width="1.0219" style="paint-order:stroke fill markers"/>
  <rect x="30.002" y="190.44" width="3" height="54.2" stroke-width="1.7549" style="paint-order:stroke fill markers"/>
 </g>
 <g transform="matrix(1.5 0 0 1.5 63.547 -32.069)" stroke-linejoin="round">
  <rect transform="rotate(-90)" x="-190.44" y="30.002" width="90.223" height="3" fill="url(#linearGradient1186)" stroke-width="1.0219" style="paint-order:stroke fill markers"/>
  <rect x="30.002" y="190.44" width="3" height="54.2" stroke-width="1.7549" style="paint-order:stroke fill markers"/>
 </g>
 <g transform="matrix(1.5 0 0 1.5 72.547 -86.203)" stroke-linejoin="round">
  <rect transform="rotate(-90)" x="-190.44" y="30.002" width="90.223" height="3" fill="url(#linearGradient1186)" stroke-width="1.0219" style="paint-order:stroke fill markers"/>
  <rect x="30.002" y="190.44" width="3" height="54.2" stroke-width="1.7549" style="paint-order:stroke fill markers"/>
 </g>
 <g transform="matrix(1.5 0 0 1.5 81.547 -41.541)" stroke-linejoin="round">
  <rect transform="rotate(-90)" x="-190.44" y="30.002" width="90.223" height="3" fill="url(#linearGradient1186)" stroke-width="1.0219" style="paint-order:stroke fill markers"/>
  <rect x="30.002" y="190.44" width="3" height="54.2" stroke-width="1.7549" style="paint-order:stroke fill markers"/>
 </g>
 <g transform="matrix(1.5 0 0 1.5 90.544 -55.925)" stroke-linejoin="round">
  <rect transform="rotate(-90)" x="-190.44" y="30.002" width="90.223" height="3" fill="url(#linearGradient1186)" stroke-width="1.0219" style="paint-order:stroke fill markers"/>
  <rect x="30.002" y="190.44" width="3" height="54.2" stroke-width="1.7549" style="paint-order:stroke fill markers"/>
 </g>
 <g transform="matrix(1.5 0 0 1.5 99.544 -71.725)" stroke-linejoin="round">
  <rect transform="rotate(-90)" x="-190.44" y="30.002" width="90.223" height="3" fill="url(#linearGradient1186)" stroke-width="1.0219" style="paint-order:stroke fill markers"/>
  <rect x="30.002" y="190.44" width="3" height="54.2" stroke-width="1.7549" style="paint-order:stroke fill markers"/>
 </g>
 <g transform="matrix(3 0 0 1.5 50.041 -45.437)" stroke-linejoin="round">
  <rect transform="rotate(-90)" x="-190.44" y="30.002" width="90.223" height="3" fill="url(#linearGradient1186)" stroke-width="1.0219" style="paint-order:stroke fill markers"/>
  <rect x="30.002" y="190.44" width="3" height="54.2" stroke-width="1.7549" style="paint-order:stroke fill markers"/>
 </g>
 <g transform="matrix(3 0 0 1.5 -17.456 -39.805)" stroke-linejoin="round">
  <rect transform="rotate(-90)" x="-190.44" y="30.002" width="90.223" height="3" fill="url(#linearGradient1186)" stroke-width="1.0219" style="paint-order:stroke fill markers"/>
  <rect x="30.002" y="190.44" width="3" height="54.2" stroke-width="1.7549" style="paint-order:stroke fill markers"/>
 </g>
 <g transform="matrix(3 0 0 1.5 -44.453 -30.52)" stroke-linejoin="round">
  <rect transform="rotate(-90)" x="-190.44" y="30.002" width="90.223" height="3" fill="url(#linearGradient1186)" stroke-width="1.0219" style="paint-order:stroke fill markers"/>
  <rect x="30.002" y="190.44" width="3" height="54.2" stroke-width="1.7549" style="paint-order:stroke fill markers"/>
 </g>
 <g transform="matrix(3 0 0 1.5 71.044 -81.468)" stroke-linejoin="round">
  <rect transform="rotate(-90)" x="-190.44" y="30.002" width="90.223" height="3" fill="url(#linearGradient1186)" stroke-width="1.0219" style="paint-order:stroke fill markers"/>
  <rect x="30.002" y="190.44" width="3" height="54.2" stroke-width="1.7549" style="paint-order:stroke fill markers"/>
 </g>
 <g transform="matrix(1.5 0 0 1.5 107.04 -45.437)" stroke-linejoin="round">
  <rect transform="rotate(-90)" x="-190.44" y="30.002" width="90.223" height="3" fill="url(#linearGradient1186)" stroke-width="1.0219" style="paint-order:stroke fill markers"/>
  <rect x="30.002" y="190.44" width="3" height="54.2" stroke-width="1.7549" style="paint-order:stroke fill markers"/>
 </g>
 <g transform="matrix(1.5 0 0 1.5 116.05 -105.52)" stroke-linejoin="round">
  <rect transform="rotate(-90)" x="-190.44" y="30.002" width="90.223" height="3" fill="url(#linearGradient1186)" stroke-width="1.0219" style="paint-order:stroke fill markers"/>
  <rect x="30.002" y="190.44" width="3" height="54.2" stroke-width="1.7549" style="paint-order:stroke fill markers"/>
 </g>
 <g transform="matrix(1.5 0 0 1.5 125.05 -116.28)" stroke-linejoin="round">
  <rect transform="rotate(-90)" x="-190.44" y="30.002" width="90.223" height="3" fill="url(#linearGradient1186)" stroke-width="1.0219" style="paint-order:stroke fill markers"/>
  <rect x="30.002" y="190.44" width="3" height="54.2" stroke-width="1.7549" style="paint-order:stroke fill markers"/>
 </g>
 <g transform="matrix(3 0 0 1.5 62.041 -45.437)" stroke-linejoin="round">
  <rect transform="rotate(-90)" x="-190.44" y="30.002" width="90.223" height="3" fill="url(#linearGradient1186)" stroke-width="1.0219" style="paint-order:stroke fill markers"/>
  <rect x="30.002" y="190.44" width="3" height="54.2" stroke-width="1.7549" style="paint-order:stroke fill markers"/>
 </g>
 <g transform="matrix(3 0 0 1.5 53.041 -4.2526)" stroke-linejoin="round">
  <rect transform="rotate(-90)" x="-190.44" y="30.002" width="90.223" height="3" fill="url(#linearGradient1186)" stroke-width="1.0219" style="paint-order:stroke fill markers"/>
  <rect x="30.002" y="190.44" width="3" height="54.2" stroke-width="1.7549" style="paint-order:stroke fill markers"/>
 </g>
 <g transform="matrix(12 0 0 1.5 -318.97 -13.171)" stroke-linejoin="round">
  <rect transform="rotate(-90)" x="-190.44" y="30.002" width="90.223" height="3" fill="url(#linearGradient1186)" stroke-width="1.0219" style="paint-order:stroke fill markers"/>
  <rect x="30.002" y="190.44" width="3" height="54.2" stroke-width="1.7549" style="paint-order:stroke fill markers"/>
 </g>
</svg>
