<?xml version="1.0" encoding="UTF-8" standalone="no"?>
<!-- Created with Inkscape (http://www.inkscape.org/) -->

<svg
   width="210mm"
   height="297mm"
   viewBox="0 0 210 297"
   version="1.1"
   id="svg974"
   inkscape:version="1.1.2 (b8e25be833, 2022-02-05)"
   sodipodi:docname="favicon.svg"
   xmlns:inkscape="http://www.inkscape.org/namespaces/inkscape"
   xmlns:sodipodi="http://sodipodi.sourceforge.net/DTD/sodipodi-0.dtd"
   xmlns="http://www.w3.org/2000/svg"
   xmlns:svg="http://www.w3.org/2000/svg">
  <sodipodi:namedview
     id="namedview976"
     pagecolor="#ffffff"
     bordercolor="#666666"
     borderopacity="1.0"
     inkscape:pageshadow="2"
     inkscape:pageopacity="0.0"
     inkscape:pagecheckerboard="0"
     inkscape:document-units="mm"
     showgrid="false"
     inkscape:zoom="3.6233469"
     inkscape:cx="399.63052"
     inkscape:cy="454.00014"
     inkscape:window-width="2240"
     inkscape:window-height="1306"
     inkscape:window-x="-11"
     inkscape:window-y="-11"
     inkscape:window-maximized="1"
     inkscape:current-layer="layer1" />
  <defs
     id="defs971" />
  <g
     inkscape:label="Layer 1"
     inkscape:groupmode="layer"
     id="layer1">
    <rect
       style="fill:#6a994e;fill-opacity:1;stroke:#6a994e;stroke-width:13.9335;stroke-linejoin:round;stroke-miterlimit:4;stroke-dasharray:none;stroke-opacity:1;paint-order:stroke fill markers"
       id="rect1075"
       width="21.144936"
       height="21.144936"
       x="90.63063"
       y="110.04504" />
    <path
       id="path2641"
       style="fill:#ffffff;fill-opacity:1;stroke:none;stroke-width:0.174978;stroke-linecap:round;stroke-linejoin:miter;stroke-miterlimit:4;stroke-dasharray:none;stroke-dashoffset:0;stroke-opacity:1;paint-order:normal"
       d="m 100.03722,115.22046 c -0.193831,0 -0.38622,0.005 -0.577532,0.0156 h 0.06928 c 0.169102,-0.01 0.338594,-0.0157 0.508252,-0.0156 z m -0.508255,0.0156 c -5.022608,0.29672 -9.726512,4.94642 -9.72644,10.76278 0,0.005 3.39e-4,0.0103 3.5e-4,0.0157 h 0.993531 c -9e-6,-0.005 -3.5e-4,-0.0103 -3.5e-4,-0.0157 -1.8e-5,-5.75894 4.516773,-10.46255 10.200924,-10.76278 z m 1.468015,0 h 0.0693 c 0.1691,-0.01 0.3386,-0.0157 0.50826,-0.0156 -0.19384,0 -0.38623,0.005 -0.57753,0.0156 z m 0.0693,0 c -5.022607,0.29672 -9.726509,4.94642 -9.726439,10.76278 0,0.005 3.39e-4,0.0103 3.51e-4,0.0157 h 0.99353 c -9e-6,-0.005 -3.49e-4,-0.0103 -3.49e-4,-0.0157 -1.8e-5,-5.75894 4.516773,-10.46255 10.200917,-10.76278 z m 1.46801,0 h 0.0693 c 0.1691,-0.01 0.3386,-0.0157 0.50825,-0.0156 -0.19382,0 -0.38622,0.005 -0.57753,0.0156 z m 0.0693,0 c -5.022609,0.29672 -9.726511,4.94642 -9.72644,10.76278 0,0.005 3.38e-4,0.0103 3.48e-4,0.0157 h 0.0268 1.347219 c -6.3e-5,-5.20875 4.222481,-9.43129 9.431233,-9.43123 5.20862,1.3e-4 9.43095,4.22262 9.43089,9.43123 h 1.34756 c 2e-5,-5.95278 -4.82567,-10.77845 -10.77845,-10.77845 z m -3.143863,0 h -0.736272 c -5.952749,0 -10.778452,4.8257 -10.778452,10.77845 h 1.31415 c -9e-6,-0.005 -3.5e-4,-0.0103 -3.5e-4,-0.0157 -1.7e-5,-5.75895 4.516772,-10.46257 10.200924,-10.76279 z m 3.215573,0.0474 c -1.83985,0.17277 -3.601282,0.81597 -5.116996,1.86277 1.479647,-1.02377 3.227236,-1.68759 5.116996,-1.86277 z m -5.385395,2.0539 c -0.01507,0.0111 -0.02989,0.0226 -0.04491,0.0338 0.01503,-0.0112 0.02983,-0.0227 0.04491,-0.0338 z m 5.719245,0.62173 c -0.46118,0.0381 -0.91126,0.11443 -1.34722,0.22663 v 7.82884 h 1.34722 z m 1.34722,0 v 8.05547 h 1.34722 v -7.82882 c -0.43597,-0.1122 -0.88606,-0.18858 -1.34722,-0.22662 z m -4.04201,0.70529 c -0.47563,0.21834 -0.926674,0.48142 -1.347221,0.78396 v 6.56621 h 1.347221 z m 6.73679,0 v 7.35017 h 1.34723 v -6.56621 c -0.42055,-0.30254 -0.87159,-0.56562 -1.34723,-0.78396 z m -9.431229,2.00412 c -0.551946,0.62542 -1.008499,1.33684 -1.347221,2.11169 v 3.23437 h 1.347221 z m 12.125669,0 v 5.34605 h 1.34722 v -3.23436 c -0.33871,-0.77485 -0.79528,-1.48627 -1.34722,-2.11169 z m -15.975515,1.11398 c -0.03571,0.0836 -0.07021,0.16765 -0.103739,0.25204 -0.03354,0.0844 -0.06611,0.16936 -0.09748,0.25448 -0.03136,0.0851 -0.06168,0.1704 -0.09086,0.25621 -0.291728,0.85796 -0.474042,1.7494 -0.542717,2.653 0.06949,-0.92165 0.255732,-1.81065 0.542717,-2.653 0.02926,-0.0859 0.05951,-0.1713 0.09086,-0.25621 0.03149,-0.0853 0.06392,-0.1702 0.09748,-0.25448 0.03365,-0.0845 0.06804,-0.16857 0.103739,-0.25204 z m -0.834789,3.41817 c -0.01364,0.18006 -0.02292,0.36047 -0.0275,0.54132 0.0045,-0.18165 0.01402,-0.36204 0.0275,-0.54132 z" />
  </g>
</svg>
