<?xml version="1.0" encoding="UTF-8" standalone="no"?>
<!-- Created with Inkscape (http://www.inkscape.org/) -->

<svg
   width="67.330948mm"
   height="7.9268913mm"
   viewBox="0 0 67.330948 7.9268913"
   version="1.1"
   id="svg2131"
   xmlns="http://www.w3.org/2000/svg"
   xmlns:svg="http://www.w3.org/2000/svg">
  <defs
     id="defs2128" />
  <g
     id="layer1"
     transform="translate(-61.834382,-90.956475)">
    <g
       aria-label="AUTOBRIDGE"
       id="text2480"
       style="font-size:10.5833px;line-height:1.25;stroke-width:0.264583">
      <path
         d="m 66.247618,91.199891 h 1.280579 l 1.460496,7.524726 h -1.206497 l -0.317499,-1.725078 h -3.270239 l -1.005414,1.725078 h -1.354662 z m 1.068913,4.698985 -0.624414,-3.354906 -1.915578,3.354906 z"
         style="font-style:italic;font-weight:600;font-family:'Petrov Sans';-inkscape-font-specification:'Petrov Sans, Semi-Bold Italic';fill:#086788"
         id="path827" />
      <path
         d="m 72.079027,98.872783 q -0.666748,0 -1.195913,-0.275166 -0.529165,-0.285749 -0.825498,-0.783164 -0.296332,-0.507998 -0.296332,-1.142996 0,-0.222249 0.05292,-0.539748 l 0.941914,-4.931818 h 1.206496 l -0.952497,4.942401 q -0.04233,0.201083 -0.04233,0.412749 0,0.550331 0.328082,0.857247 0.328083,0.306916 0.920747,0.306916 h 0.486832 q 0.698498,0 1.195913,-0.423332 0.497415,-0.423332 0.634998,-1.15358 l 0.973664,-4.942401 h 1.206496 l -0.99483,5.016484 q -0.148167,0.751414 -0.582082,1.354662 -0.423332,0.603248 -1.068913,0.952497 -0.645581,0.349249 -1.396996,0.349249 z"
         style="font-style:italic;font-weight:600;font-family:'Petrov Sans';-inkscape-font-specification:'Petrov Sans, Semi-Bold Italic';fill:#086788"
         id="path829" />
      <path
         d="m 79.55083,92.321721 h -2.349492 l 0.211666,-1.12183 h 5.884315 l -0.22225,1.12183 H 80.73616 l -1.238246,6.402896 h -1.195913 z"
         style="font-style:italic;font-weight:600;font-family:'Petrov Sans';-inkscape-font-specification:'Petrov Sans, Semi-Bold Italic';fill:#086788"
         id="path831" />
      <path
         d="m 85.181138,98.872783 q -0.677331,0 -1.217079,-0.285749 -0.529165,-0.285749 -0.836081,-0.793747 -0.296332,-0.518582 -0.296332,-1.164163 0,-0.22225 0.05292,-0.539749 l 0.444499,-2.349492 q 0.148166,-0.761998 0.582081,-1.375829 0.433916,-0.613831 1.09008,-0.96308 0.656165,-0.349249 1.418162,-0.349249 h 0.899581 q 0.687914,0 1.217079,0.285749 0.539749,0.285749 0.836081,0.793747 0.306916,0.507999 0.306916,1.15358 0,0.222249 -0.05292,0.539748 l -0.444498,2.349493 q -0.148167,0.761997 -0.592665,1.375829 -0.433916,0.613831 -1.100663,0.973663 -0.656165,0.349249 -1.418163,0.349249 z m -1.09008,-2.772824 q -0.04233,0.201082 -0.04233,0.423332 0,0.560915 0.338666,0.878414 0.349249,0.317499 0.952497,0.317499 h 0.751414 q 0.719664,0 1.227663,-0.433916 0.507998,-0.433915 0.656164,-1.185329 l 0.444499,-2.27541 q 0.04233,-0.201082 0.04233,-0.423332 0,-0.560915 -0.338665,-0.878414 -0.338666,-0.328082 -0.952497,-0.328082 h -0.751415 q -0.730247,0 -1.238246,0.444499 -0.497415,0.433915 -0.645581,1.185329 z"
         style="font-style:italic;font-weight:600;font-family:'Petrov Sans';-inkscape-font-specification:'Petrov Sans, Semi-Bold Italic';fill:#086788"
         id="path833" />
      <path
         d="m 91.171283,91.115225 h 3.989904 q 0.888997,0 1.375829,0.423332 0.497415,0.412748 0.497415,1.206496 0,0.09525 -0.02117,0.306915 l -0.01058,0.09525 q -0.0635,0.550332 -0.359832,0.984247 -0.296333,0.433915 -0.783164,0.666748 0.349249,0.190499 0.529165,0.529165 0.179916,0.328082 0.179916,0.772581 0,0.211666 -0.05292,0.507998 l -0.03175,0.169333 q -0.169332,0.89958 -0.846664,1.428745 -0.677331,0.518582 -1.650994,0.518582 h -4.29682 z m 2.582325,5.990147 q 0.296332,0 0.497415,-0.158749 0.201083,-0.15875 0.275166,-0.465666 l 0.05292,-0.222249 q 0.02117,-0.126999 0.02117,-0.169333 0,-0.222249 -0.148166,-0.338665 -0.148166,-0.127 -0.412749,-0.127 h -1.735661 l -0.296332,1.481662 z m 0.412749,-2.98449 q 0.285749,0 0.486832,-0.15875 0.211665,-0.158749 0.264582,-0.455082 l 0.04233,-0.201082 q 0.01058,-0.05292 0.01058,-0.148167 0,-0.222249 -0.137582,-0.338665 -0.137583,-0.127 -0.380999,-0.127 h -1.587495 l -0.275166,1.428746 z"
         style="font-style:italic;font-weight:900;font-family:'Petrov Sans';-inkscape-font-specification:'Petrov Sans, Heavy Italic';fill:#386641"
         id="path835" />
      <path
         d="m 98.357352,91.115225 h 3.725318 q 1.00542,0 1.55575,0.550331 0.56091,0.539748 0.56091,1.471079 0,0.338665 -0.0529,0.603248 l -0.0635,0.328082 q -0.15875,0.783164 -0.64558,1.344079 -0.47625,0.550332 -1.27,0.772581 l 0.22225,0.402165 1.06891,2.137827 h -2.20132 l -1.016,-2.233076 h -0.899581 l -0.423332,2.233076 H 96.87569 l 0.423332,-2.233076 z m 2.698738,3.672405 q 0.40217,0 0.64559,-0.211666 0.25399,-0.211666 0.33866,-0.603249 l 0.0529,-0.285749 q 0.0318,-0.126999 0.0318,-0.232832 0,-0.275166 -0.1905,-0.423332 -0.17992,-0.15875 -0.51858,-0.15875 h -1.397 l -0.370415,1.915578 z"
         style="font-style:italic;font-weight:900;font-family:'Petrov Sans';-inkscape-font-specification:'Petrov Sans, Heavy Italic';fill:#386641"
         id="path837" />
      <path
         d="m 105.41641,91.115225 h 2.04258 l -1.48166,7.609392 h -2.04258 z"
         style="font-style:italic;font-weight:900;font-family:'Petrov Sans';-inkscape-font-specification:'Petrov Sans, Heavy Italic';fill:#386641"
         id="path839" />
      <path
         d="m 108.52791,91.115225 h 3.6724 q 0.74083,0 1.30175,0.306915 0.56091,0.306916 0.86783,0.878414 0.30691,0.560915 0.30691,1.291163 0,0.359832 -0.0741,0.719664 l -0.26458,1.365246 q -0.27517,1.396995 -1.17475,2.222493 -0.88899,0.825497 -2.16957,0.825497 h -3.94757 z m 2.36007,5.757315 q 0.62442,0 0.9525,-0.317499 0.32808,-0.317499 0.46567,-1.02658 l 0.24341,-1.227663 q 0.0529,-0.243416 0.0529,-0.507999 0,-0.433915 -0.23283,-0.624414 -0.23284,-0.201083 -0.71967,-0.201083 h -1.43933 l -0.762,3.905238 z"
         style="font-style:italic;font-weight:900;font-family:'Petrov Sans';-inkscape-font-specification:'Petrov Sans, Heavy Italic';fill:#386641"
         id="path841" />
      <path
         d="m 117.4602,98.883366 q -0.74083,0 -1.30175,-0.306915 -0.55033,-0.317499 -0.85725,-0.878414 -0.30691,-0.560915 -0.30691,-1.301746 0,-0.359832 0.0741,-0.719664 l 0.32808,-1.682745 q 0.27517,-1.396995 1.16417,-2.21191 0.88899,-0.825497 2.16957,-0.825497 h 1.11125 q 0.74083,0 1.29116,0.306916 0.56092,0.306915 0.86783,0.86783 0.30692,0.560915 0.30692,1.291163 0,0.243416 -0.0318,0.497415 h -2.04258 q 0.0212,-0.116416 0.0212,-0.328082 0,-0.444499 -0.23284,-0.645582 -0.22224,-0.201082 -0.71966,-0.201082 h -0.45508 q -0.61383,0 -0.9525,0.317499 -0.32808,0.317499 -0.46566,1.02658 l -0.32809,1.661578 q -0.0529,0.232832 -0.0529,0.507998 0,0.433915 0.22225,0.634998 0.23283,0.201083 0.71966,0.201083 h 0.53975 q 0.58208,0 0.91016,-0.253999 0.32809,-0.254 0.46567,-0.836081 h -1.36525 l 0.26459,-1.418162 h 3.3549 l -0.1905,0.984247 -0.0423,0.232832 q -0.29633,1.471079 -1.18533,2.27541 -0.889,0.80433 -2.16958,0.80433 z"
         style="font-style:italic;font-weight:900;font-family:'Petrov Sans';-inkscape-font-specification:'Petrov Sans, Heavy Italic';fill:#386641"
         id="path843" />
      <path
         d="m 123.72551,91.115225 h 5.43982 l -0.32808,1.746244 h -3.41841 l -0.23283,1.195913 h 3.07974 l -0.32808,1.693328 h -3.07974 l -0.24342,1.217079 h 3.47132 l -0.33866,1.756828 h -5.50332 z"
         style="font-style:italic;font-weight:900;font-family:'Petrov Sans';-inkscape-font-specification:'Petrov Sans, Heavy Italic';fill:#386641"
         id="path845" />
    </g>
    <g
       transform="translate(-15.887537,-25.080589)"
       id="g16347">
      <g
         id="g16343"
         transform="translate(30.7122,6.279)" />
    </g>
  </g>
</svg>
