<?xml version="1.0" encoding="UTF-8"?>
<!-- Created with Inkscape (http://www.inkscape.org/) -->
<svg width="39.362mm" height="39.362mm" version="1.1" viewBox="0 0 39.362 39.362" xmlns="http://www.w3.org/2000/svg">
 <g transform="translate(-66.859 -154.26)">
  <path transform="scale(.26458)" d="m107.33 488.81c-1.0875 0-2.1669 0.0312-3.2402 0.0879h0.38868c0.94875-0.056 1.8997-0.0879 2.8516-0.0879zm-2.8516 0.0879c-28.179 1.6647-54.571 27.752-54.57 60.385 0 0.0291 0.0019 0.0576 2e-3 0.0879h5.5742c-4.2e-5 -0.0295-2e-3 -0.0576-2e-3 -0.0879-1.1e-4 -32.311 25.341-58.7 57.232-60.385zm8.2363 0h0.38868c0.94875-0.056 1.8997-0.0879 2.8516-0.0879-1.0875 0-2.1669 0.0312-3.2402 0.0879zm0.38868 0c-28.179 1.6647-54.571 27.752-54.57 60.385 0 0.0295 0.0019 0.0576 2e-3 0.0879h5.5742c-4.2e-5 -0.0295-2e-3 -0.0576-2e-3 -0.0879-1.1e-4 -32.311 25.341-58.7 57.232-60.385zm8.2363 0h0.38868c0.94875-0.056 1.8997-0.0879 2.8516-0.0879-1.0875 0-2.1669 0.0312-3.2402 0.0879zm0.38868 0c-28.179 1.6647-54.571 27.752-54.57 60.385 0 0.0295 0.0019 0.0576 2e-3 0.0879h5.5742c-4.2e-5 -0.0295-2e-3 -0.0576-2e-3 -0.0879-1.1e-4 -32.311 25.341-58.7 57.232-60.385zm8.2363 0h0.38868c0.94875-0.056 1.8997-0.0879 2.8516-0.0879-1.0875 0-2.1669 0.0312-3.2402 0.0879zm0.38868 0c-28.179 1.6647-54.571 27.752-54.57 60.385 0 0.0295 0.0019 0.0576 2e-3 0.0879h0.15039c-5e-6 -1.3288 0.04786-2.646 0.13281-3.9531a60.472 60.472 0 0 0-0.13281 3.9531h7.5586a52.913 52.913 0 0 1 52.914-52.914 52.913 52.913 0 0 1 52.912 52.914h7.5606a60.472 60.472 0 0 0-60.473-60.473zm-26.264 0h-3.6309c-33.398 0-60.473 27.075-60.473 60.473h6.873c-4.2e-5 -0.0291-2e-3 -0.0576-2e-3 -0.0879-1.1e-4 -32.311 25.341-58.7 57.232-60.385zm27.799 0.16993a60.472 60.472 0 0 0-33.152 13c9.231-7.3611 20.664-12.077 33.152-13zm0.74024 15.107c-2.5874 0.21354-5.1126 0.64193-7.5586 1.2715v43.924h7.5586zm7.5586 0v45.195h7.5586v-43.924c-2.446-0.62955-4.9712-1.058-7.5586-1.2715zm-22.678 3.957c-2.6685 1.225-5.1991 2.701-7.5586 4.3984v36.84h7.5586zm37.797 0v41.238h7.5586v-36.84c-2.3595-1.6974-4.8901-3.1735-7.5586-4.3984zm-66.201 3.5684a60.472 60.472 0 0 0-2.4082 3.2441c0.76643-1.1092 1.5692-2.192 2.4082-3.2441zm-2.4102 3.248a60.472 60.472 0 0 0-2.1895 3.4004c0.69413-1.1584 1.4239-2.2924 2.1895-3.4004zm-2.2402 3.4844a60.472 60.472 0 0 0-1.9473 3.5273c0.61064-1.1995 1.2598-2.3758 1.9473-3.5273zm17.938 0.94336c-3.0967 3.509-5.6582 7.5004-7.5586 11.848v18.146h7.5586zm68.031 0v29.994h7.5586v-18.146c-1.9004-4.3473-4.4619-8.3387-7.5586-11.848zm-87.922 2.5957a60.472 60.472 0 0 0-1.709 3.6543 60.472 60.472 0 0 0-1.4414 3.7148c0.44228-1.2572 0.92044-2.4969 1.4414-3.7148 0.53037-1.2399 1.1006-2.4586 1.709-3.6543zm-3.1973 7.498a60.472 60.472 0 0 0-1.1934 3.8281 60.472 60.472 0 0 0-2.0293 11.914c0.28027-4.0979 0.97117-8.0817 2.0293-11.914 0.35713-1.2935 0.75423-2.5708 1.1934-3.8281z" style="paint-order:normal"/>
  <rect x="70.739" y="89.121" width="59.379" height="28.709" fill-opacity=".4827" style="paint-order:markers fill stroke"/>
  <g fill="none" stroke="#000" stroke-width="1.865">
   <path d="m101 79.439v9.6814"/>
   <path d="m96.974 80.218v8.9023"/>
   <path d="m92.952 83.646v5.4749"/>
  </g>
  <path d="m84.241 89.121h6.6995c0.51634-5.0989 5.4861-9.2167 10.056-9.6814-2.1997 0-4.077-0.08464-6.5705 0.50094-5.0999 1.1977-10.055 5.2596-10.185 9.1805z" fill="#f00" fill-opacity=".4827"/>
  <path d="m105.02 80.218v8.9023" fill="none" stroke="#000" stroke-width="1.865"/>
  <path d="m109.04 83.646v5.4749" fill="none" stroke="#000" stroke-width="1.865"/>
  <g>
   <path d="m101 60.917c-0.2676 0-0.52823 0.06821-0.79337 0.12277v8.1207h1.5867v-8.1207c-0.26514-0.05456-0.52576-0.12277-0.79336-0.12277z" color="#000000" style="paint-order:fill markers stroke"/>
   <path d="m98.365 61.631c-0.5453 0.23894-1.0785 0.53071-1.5881 0.86818v6.6611h1.5881z" color="#000000" style="paint-order:fill markers stroke"/>
   <path d="m94.941 64.029c-0.62556 0.65163-1.1671 1.3835-1.5881 2.1751v2.9561h1.5881z" color="#000000" style="paint-order:fill markers stroke"/>
   <path d="m84.241 69.879h6.6995c0.51634-5.0989 5.4861-9.2167 10.056-9.6814-2.1997 0-4.077-0.08464-6.5705 0.50094-5.0999 1.1977-10.055 5.2596-10.185 9.1805z" stroke="#000" stroke-width=".5"/>
   <path d="m103.63 61.631c0.54531 0.23894 1.0785 0.53071 1.5881 0.86818v6.6611h-1.5881z" color="#000000" style="paint-order:fill markers stroke"/>
   <path d="m107.05 64.029c0.62555 0.65163 1.1672 1.3835 1.588 2.1751v2.9561h-1.588z" color="#000000" style="paint-order:fill markers stroke"/>
  </g>
  <path d="m111.05 69.879c-0.51634-5.0989-5.4861-9.2167-10.056-9.6814" fill="none" stroke="#000" stroke-width=".5" style="paint-order:normal"/>
  <g>
   <g>
    <path d="m100.78 45.913c-0.2676 0-0.52823 0.06821-0.79337 0.12277v8.1207h1.5867v-8.1207c-0.26514-0.05456-0.52576-0.12277-0.79336-0.12277z" color="#000000" style="paint-order:fill markers stroke"/>
    <path d="m98.15 46.627c-0.5453 0.23894-1.0785 0.53071-1.5881 0.86818v6.6611h1.5881z" color="#000000" style="paint-order:fill markers stroke"/>
    <path d="m94.725 49.025c-0.62556 0.65163-1.1671 1.3835-1.5881 2.1751v2.9561h1.5881z" color="#000000" style="paint-order:fill markers stroke"/>
   </g>
   <path transform="scale(.26458)" d="m374.84 166.19c-5.9726 0.0143-11.818 0.25405-18.979 1.9356-9.8028 2.3021-19.423 7.3352-26.701 13.701-7.2782 6.366-12.269 14.091-12.527 21.887l-0.0293 0.97461h27.15l0.0898-0.84961c1.892-18.683 21.847-35.732 37.068-35.73 15.222 2e-3 36.486 19.28 36.486 35.52l-0.0109 1.0606h2.4767l-0.0108-1.0408c0-17.892-21.43-37.45-38.944-37.45-2.618-3e-3 -4.3362 2e-3 -6.0701-7e-3z" color="#000000" stroke-width="1.8898" style="-inkscape-stroke:none"/>
   <path d="m103.41 46.627c0.54531 0.23894 1.0785 0.53071 1.5881 0.86818v6.6611h-1.5881z" color="#000000" style="paint-order:fill markers stroke"/>
   <path d="m106.84 49.025c0.62555 0.65163 1.1672 1.3835 1.588 2.1751v2.9561h-1.588z" color="#000000" style="paint-order:fill markers stroke"/>
  </g>
  <path d="m86.899 54.173c0.02905-2.0035 1.4552-4.9356 5.0932-7.3913s6.9014-2.8098 6.9014-2.8098l0.28214-0.0014s-3.8374 0.74901-6.9234 3.0287-4.6538 5.0573-4.6538 7.1737z" fill="#fff"/>
  <g fill="#f00" fill-opacity=".42076">
   <circle cx="96.419" cy="21.087" r="16" style="paint-order:normal"/>
   <circle cx="96.419" cy="21.087" r="14" style="paint-order:normal"/>
   <path d="m86.908 5.0875c-8.8366 0-16 7.1635-16 16 0 8.8366 7.1635 16 16 16h18.256v-32z" stroke-linecap="round" stroke-width=".25975"/>
   <path transform="scale(.26458)" d="m144.16 36.85a60.472 60.472 0 0 0-60.473 60.473 60.472 60.472 0 0 0 60.473 60.473 60.472 60.472 0 0 0 60.473-60.473 60.472 60.472 0 0 0-60.473-60.473zm0 7.5586a52.913 52.913 0 0 1 52.912 52.914 52.913 52.913 0 0 1-52.912 52.914 52.913 52.913 0 0 1-52.914-52.914 52.913 52.913 0 0 1 52.914-52.914z" style="paint-order:normal"/>
   <path d="m28.63 9.7498c-8.8366 0-16 7.1635-16 16 0 8.8366 7.1635 16 16 16h9.4976c-8.831-0.0077-15.986-7.1686-15.986-16-3.1e-5 -8.8366 7.1635-16 16-16z" stroke-linecap="round" stroke-width=".25975"/>
   <path d="m50.142 25.75c0 6.6274-5.3726 12-12 12s-12-5.3726-12-12 5.3726-12 12-12 12 5.3726 12 12z" stroke-linecap="round" stroke-width=".19481"/>
   <g stroke-width="0">
    <path d="m27.142 13.143h2v25.214h-2z"/>
    <path d="m31.142 13.143h2v25.214h-2z"/>
    <path d="m35.142 13.143h2v25.214h-2z"/>
    <path d="m39.142 13.143h2v25.214h-2z"/>
    <path d="m43.142 13.143h2v25.214h-2z"/>
    <path d="m47.142 13.143h2v25.214h-2z"/>
   </g>
   <path d="m36.091 45a16 16 0 0 0-16 16 16 16 0 0 0 16 16 16 16 0 0 0 16-16 16 16 0 0 0-16-16zm0 1.9999a14 14 0 0 1 14 14 14 14 0 0 1-14 14 14 14 0 0 1-14-14 14 14 0 0 1 14-14z" style="paint-order:normal"/>
   <path d="m26.58 45c-8.8366 0-16 7.1635-16 16 0 8.8366 7.1635 16 16 16h9.4976c-8.831-0.0077-15.986-7.1686-15.986-16-3.1e-5 -8.8366 7.1635-16 16-16z" stroke-linecap="round" stroke-width=".25975"/>
   <path d="m35.091 49.042c-0.68459 0.05648-1.3527 0.16984-1.9999 0.33642v23.244c0.64717 0.16657 1.3153 0.27994 1.9999 0.33641zm1.9999 0v23.916c0.68458-0.05648 1.3527-0.16984 1.9999-0.33641v-23.244c-0.64716-0.16657-1.3153-0.27994-1.9999-0.33642zm-6.0002 1.047c-0.70605 0.32411-1.3756 0.71464-1.9999 1.1638v19.495c0.62426 0.4491 1.2938 0.83913 1.9999 1.1632zm10 0v21.822c0.70603-0.32411 1.3756-0.71414 1.9999-1.1632v-19.495c-0.62428-0.44911-1.2938-0.83964-1.9999-1.1638zm-14 2.975c-0.81933 0.92842-1.4971 1.9845-1.9999 3.1347v9.603c0.50281 1.1502 1.1805 2.2063 1.9999 3.1347zm18 0v15.872c0.81933-0.92842 1.4971-1.9845 1.9999-3.1347v-9.603c-0.50281-1.1502-1.1805-2.2063-1.9999-3.1347z" stroke-linecap="round" stroke-width=".19481"/>
   <rect x="6.2243" y="61" width="49.266" height="16" style="paint-order:normal"/>
   <path d="m26.58 88.656c-8.8366 0-16 7.1635-16 16h9.5116c-8e-6 -2.231 0.46004-4.3533 1.2852-6.2823 0.28157-0.65824 0.60515-1.2939 0.96893-1.9032a16 16 0 0 0-0.96893 1.9032 16 16 0 0 0-1.2852 6.2823h1.9999a14 14 0 0 1 14-14 14 14 0 0 1 14 14h2.0004a16 16 0 0 0-16-16zm8.3158 0.04496a16 16 0 0 0-8.7716 3.4396c2.4424-1.9476 5.4672-3.1954 8.7716-3.4396zm0.19586 3.9972c-0.68459 0.05648-1.3527 0.16984-1.9999 0.33641v11.622h1.9999zm1.9999 0v11.958h1.9999v-11.622c-0.64716-0.16657-1.3153-0.27993-1.9999-0.33641zm-6.0002 1.047c-0.70605 0.32411-1.3756 0.71464-1.9999 1.1638v9.7472h1.9999zm10 0v10.911h1.9999v-9.7472c-0.62428-0.44911-1.2938-0.83964-1.9999-1.1638zm-17.516 0.94413a16 16 0 0 0-1.217 1.7591c0.3677-0.61366 0.773-1.2023 1.217-1.7591zm3.5155 2.0309c-0.81933 0.92842-1.4971 1.9845-1.9999 3.1347v4.8013h1.9999zm18 0v7.9359h1.9999v-4.8013c-0.50281-1.1502-1.1805-2.2063-1.9999-3.1347z" style="paint-order:normal"/>
   <path d="m29.335 88.586c-8.8366-3e-5 -16 7.1635-16 16 0 8e-3 5.05e-4 0.0155 5.16e-4 0.0232h1.9999c-1.2e-5 -8e-3 -5.17e-4 -0.0155-5.17e-4 -0.0232-9.8e-5 -7.7321 6.2681-16 14-16z" style="paint-order:normal"/>
   <path d="m26.58 109.05c-8.8366 0-16 7.1635-16 16h9.5116c-8e-6 -2.231 0.46004-4.3533 1.2852-6.2823 0.28157-0.65824 0.60515-1.2939 0.96893-1.9032a16 16 0 0 0-0.96893 1.9032 16 16 0 0 0-1.2852 6.2823h1.9999a14 14 0 0 1 14-14 14 14 0 0 1 14 14h2.0004a16 16 0 0 0-16-16zm8.3158 0.045a16 16 0 0 0-8.7716 3.4396c2.4424-1.9476 5.4672-3.1954 8.7716-3.4396zm0.19586 3.9972c-0.68459 0.0565-1.3527 0.16984-1.9999 0.33641v11.622h1.9999zm1.9999 0v11.958h1.9999v-11.622c-0.64716-0.16657-1.3153-0.27993-1.9999-0.33641zm-6.0002 1.047c-0.70605 0.32411-1.3756 0.71465-1.9999 1.1638v9.7472h1.9999zm10 0v10.911h1.9999v-9.7472c-0.62428-0.44911-1.2938-0.83965-1.9999-1.1638zm-17.516 0.94413a16 16 0 0 0-1.217 1.7591c0.3677-0.61366 0.773-1.2023 1.217-1.7591zm3.5155 2.0309c-0.81933 0.92842-1.4971 1.9845-1.9999 3.1347v4.8012h1.9999zm18 0v7.9359h1.9999v-4.8012c-0.50281-1.1502-1.1805-2.2063-1.9999-3.1347z" style="paint-order:normal"/>
   <path d="m35.244 109.03c-8.8366-3e-5 -16 7.1635-16 16 0 8e-3 5.06e-4 0.0155 5.17e-4 0.0233h0.80719c-1.5e-5 -8e-3 -5.17e-4 -0.0155-5.17e-4 -0.0233-1.13e-4 -8.9248 7.4607-16 15.193-16z" style="paint-order:normal"/>
   <path d="m28.398 109.03c-8.8366-3e-5 -16 7.1635-16 16 0 8e-3 5.05e-4 0.0155 5.16e-4 0.0232h0.80719c-1.5e-5 -8e-3 -5.17e-4 -0.0155-5.17e-4 -0.0232-1.13e-4 -8.9248 7.4607-16 15.193-16z" style="paint-order:normal"/>
   <path d="m32.962 109.03c-8.8366-3e-5 -16 7.1635-16 16 0 8e-3 5.06e-4 0.0155 5.17e-4 0.0233h0.80719c-1.5e-5 -8e-3 -5.17e-4 -0.0155-5.17e-4 -0.0233-1.13e-4 -8.9248 7.4607-16 15.193-16z" style="paint-order:normal"/>
   <path d="m30.68 109.03c-8.8366-3e-5 -16 7.1635-16 16 0 8e-3 5.06e-4 0.0155 5.17e-4 0.0233h0.80719c-1.5e-5 -8e-3 -5.17e-4 -0.0155-5.17e-4 -0.0233-1.13e-4 -8.9248 7.4607-16 15.193-16z" style="paint-order:normal"/>
   <path d="m33.395 88.586c-8.8366-3e-5 -16 7.1635-16 16 0 8e-3 5.06e-4 0.0155 5.17e-4 0.0232h1.9999c-1.2e-5 -8e-3 -5.17e-4 -0.0155-5.17e-4 -0.0232-9.8e-5 -7.7321 6.2681-16 14-16z" style="paint-order:normal"/>
   <path d="m72.229 129.16c-8.8366 0-16 7.1635-16 16h8.1084c-8e-6 -2.231 0.46004-4.3533 1.2852-6.2823 0.28157-0.65825 0.60515-1.2939 0.96893-1.9032-0.36501 0.61213-0.6887 1.248-0.96893 1.9032-0.84794 1.9859-1.2851 4.1229-1.2852 6.2823h1.9999c-9.9e-5 -7.7321 6.2681-14 14-14 7.7319 1.9e-4 14 6.2683 14 14h2.0004c3.3e-5 -8.8366-7.1635-16-16-16zm6.9126 0.045c-3.2028 0.24015-6.2592 1.4386-8.7716 3.4396 2.4424-1.9476 5.4672-3.1954 8.7716-3.4396zm0.19586 3.9972c-0.68459 0.0565-1.3527 0.16984-1.9999 0.33641v11.622h1.9999zm1.9999 0v11.958h1.9999v-11.622c-0.64716-0.16658-1.3153-0.27994-1.9999-0.33642zm-6.0002 1.047c-0.70605 0.32411-1.3756 0.71464-1.9999 1.1638v9.7472h1.9999zm10 0v10.911h1.9999v-9.7472c-0.62428-0.44911-1.2938-0.83964-1.9999-1.1638zm-17.516 0.94413c-0.44444 0.55855-0.85101 1.1462-1.217 1.7591 0.3677-0.61365 0.773-1.2023 1.217-1.7591zm3.5155 2.0309c-0.81933 0.92842-1.4971 1.9845-1.9999 3.1347v4.8013h1.9999zm18 0v7.936h1.9999v-4.8013c-0.50281-1.1502-1.1805-2.2063-1.9999-3.1347z" style="paint-order:normal"/>
   <path d="m75.105 129.16c-0.07841 0-0.15651 1e-3 -0.23461 3e-3 0.07819-1e-3 0.15616-3e-3 0.23461-3e-3zm-0.23461 3e-3c-3.7485 0.0539-7.3376 1.3924-10.213 3.5959-3.8196 2.9273-6.3794 7.3811-6.3794 12.378 0 8e-3 5.05e-4 0.0155 5.16e-4 0.0232h1.9999c-1.3e-5 -8e-3 -5.18e-4 -0.0155-5.18e-4 -0.0232-9.6e-5 -7.6537 6.9686-15.809 14.592-15.974z" style="paint-order:normal"/>
   <path d="m79.164 129.16c-0.07841 0-0.15651 1e-3 -0.23461 3e-3 0.07819-1e-3 0.15616-3e-3 0.23461-3e-3zm-0.23461 3e-3c-3.7485 0.0539-7.3376 1.3924-10.213 3.5959-3.8196 2.9273-6.3794 7.3811-6.3794 12.378 0 8e-3 5.05e-4 0.0155 5.16e-4 0.0232h1.9999c-1.3e-5 -8e-3 -5.18e-4 -0.0155-5.18e-4 -0.0232-9.6e-5 -7.6537 6.9686-15.809 14.592-15.974z" style="paint-order:normal"/>
  </g>
  <g>
   <path d="m26.69 150.51c-8.8365 0-16 7.1635-16 16h2.049c-1.1e-5 -8e-3 -5.16e-4 -0.0153-5.16e-4 -0.0233-1.6e-5 -4.9968 2.5593-9.4503 6.3789-12.378 2.8752-2.2035 6.4648-3.5423 10.213-3.5962-7.6238 0.16499-14.592 8.32-14.592 15.974 2e-6 8e-3 5.05e-4 0.0153 5.18e-4 0.0233h2.0598c-1e-5 -8e-3 -5.16e-4 -0.0153-5.16e-4 -0.0233-1.6e-5 -4.9968 2.5593-9.4503 6.3789-12.378 2.8752-2.2035 6.4648-3.5423 10.213-3.5962-2.4058 0.0521-4.7459 0.90133-6.8228 2.2779 1.9204-1.1547 4.1018-1.9191 6.4363-2.1797 0.1985-0.0222 0.3983-0.0415 0.59893-0.0563-0.20018 0.015-0.39999 0.0339-0.59893 0.0563-2.2924 0.2588-4.4949 1.0121-6.4611 2.1968-4.4917 2.9893-7.7448 8.45-7.7447 13.679 0 8e-3 5.02e-4 0.0153 5.16e-4 0.0233h1.9999c-9.8e-5 -7.7321 6.2681-14 14-14 7.7319 1.9e-4 14 6.2683 14 14h2.0004c3.4e-5 -8.8366-7.1635-16-16-16zm-0.14728 2.298c0.0083-6e-3 0.01646-0.0115 0.02481-0.017-0.26137 0.15715-0.5186 0.32006-0.76998 0.49144 0.2438-0.16589 0.49327-0.32261 0.74518-0.47439zm-0.74518 0.47439c-0.16528 0.11269-0.32861 0.22811-0.48938 0.34675 0.16118-0.11875 0.32424-0.23438 0.48938-0.34675zm-0.48938 0.34675c-0.16131 0.11905-0.32037 0.24047-0.47697 0.36535 0.15702-0.12506 0.3158-0.2466 0.47697-0.36535zm8.4904 0.92294c-0.68459 0.0565-1.3527 0.16984-1.9999 0.33641v11.622h1.9999zm1.9999 0v11.958h1.9999v-11.622c-0.64716-0.16657-1.3153-0.27993-1.9999-0.33641zm-6.0002 1.047c-0.70605 0.32411-1.3756 0.71464-1.9999 1.1638v9.7472h1.9999zm10 0v10.911h1.9999v-9.7472c-0.62428-0.44911-1.2938-0.83964-1.9999-1.1638zm-14 2.975c-0.81934 0.92842-1.4971 1.9845-1.9999 3.1347v4.8013h1.9999zm18 0v7.936h1.9999v-4.8013c-0.50281-1.1502-1.1805-2.2063-1.9999-3.1347zm-23.263 0.68626c-0.16109 0.31657-0.31175 0.63911-0.45217 0.96738 0.14012-0.32764 0.29059-0.65 0.45217-0.96738zm-0.45217 0.96738c-0.05294 0.12377-0.1046 0.24881-0.15451 0.37414 0.04978-0.12527 0.10152-0.25002 0.15451-0.37414zm-0.15451 0.37414c-0.5374 1.3495-0.89723 2.7882-1.049 4.2892 0.14951-1.4694 0.50215-2.913 1.049-4.2892zm-1.0547 4.3532c-0.01102 0.11354-0.02186 0.22736-0.03049 0.34158 0.0087-0.11398 0.01938-0.22788 0.03049-0.34158zm-0.03307 0.38654c-0.0085 0.11762-0.01625 0.23567-0.02222 0.35399 6e-3 -0.1181 0.01359-0.23614 0.02222-0.35399z" style="paint-order:normal"/>
   <path d="m84.809 165.93c-0.28773 0-0.57332 8e-3 -0.85731 0.0232h0.10284c0.25102-0.0148 0.50263-0.0233 0.75448-0.0232zm-0.75448 0.0232c-7.4558 0.44045-14.439 7.3427-14.438 15.977 0 8e-3 5.03e-4 0.0153 5.19e-4 0.0233h1.4748c-1.3e-5 -8e-3 -5.18e-4 -0.0153-5.18e-4 -0.0233-2.7e-5 -8.5489 6.7049-15.531 15.143-15.977zm2.1792 0h0.10284c0.25102-0.0148 0.50263-0.0233 0.75448-0.0232-0.28773 0-0.57332 8e-3 -0.85731 0.0232zm0.10284 0c-7.4558 0.44045-14.439 7.3427-14.438 15.977 0 8e-3 5.03e-4 0.0153 5.19e-4 0.0233h1.4748c-1.4e-5 -8e-3 -5.19e-4 -0.0153-5.19e-4 -0.0233-2.6e-5 -8.5489 6.7049-15.531 15.143-15.977zm2.1792 0h0.10284c0.25102-0.0148 0.50263-0.0233 0.75448-0.0232-0.28773 0-0.57332 8e-3 -0.85731 0.0232zm0.10284 0c-7.4558 0.44045-14.439 7.3427-14.438 15.977 0 8e-3 5.02e-4 0.0153 5.18e-4 0.0233h2.0397c-9.3e-5 -7.7321 6.2681-14 14-14 7.7319 1.9e-4 14 6.2683 14 14h2.0004c3e-5 -8.8366-7.1635-16-16-16zm-4.6669 0h-1.093c-8.8365 0-16 7.1635-16 16h1.9508c-1.3e-5 -8e-3 -5.18e-4 -0.0153-5.18e-4 -0.0233-2.7e-5 -8.5489 6.7049-15.531 15.143-15.977zm4.7734 0.0703c-2.7312 0.2565-5.3459 1.2113-7.5959 2.7652 2.1965-1.5197 4.7907-2.5052 7.5959-2.7652zm-7.9943 3.0489c-0.02237 0.0165-0.04437 0.0335-0.06666 0.0501 0.0223-0.0166 0.04427-0.0336 0.06666-0.0501zm8.4899 0.92294c-0.68459 0.0565-1.3527 0.16985-1.9999 0.33641v11.622h1.9999zm1.9999 0v11.958h1.9999v-11.622c-0.64716-0.16656-1.3153-0.27993-1.9999-0.33641zm-6.0002 1.047c-0.70605 0.32411-1.3756 0.71464-1.9999 1.1638v9.7472h1.9999zm10 0v10.911h1.9999v-9.7472c-0.62428-0.44911-1.2938-0.83964-1.9999-1.1638zm-14 2.975c-0.81934 0.92842-1.4971 1.9845-1.9999 3.1347v4.8013h1.9999zm18 0v7.936h1.9999v-4.8013c-0.50281-1.1502-1.1806-2.2063-1.9999-3.1347zm-23.715 1.6536c-0.053 0.12412-0.10421 0.24887-0.154 0.37414-0.04978 0.12527-0.09814 0.2514-0.1447 0.37776-0.04655 0.12635-0.09156 0.25296-0.13487 0.38034-0.43306 1.2736-0.70369 2.5969-0.80564 3.9382 0.10316-1.3682 0.37962-2.6878 0.80564-3.9382 0.04344-0.12752 0.08834-0.25429 0.13487-0.38034 0.04675-0.12664 0.09488-0.25264 0.1447-0.37776 0.04996-0.12548 0.10099-0.25023 0.154-0.37414zm-1.2392 5.0741c-0.02025 0.26729-0.03402 0.53509-0.04082 0.80357 0.0067-0.26965 0.02082-0.53744 0.04082-0.80357z" style="paint-order:normal"/>
   <path d="m94.631 199.96c-0.28773 0-0.57332 8e-3 -0.85731 0.0232h0.10284c0.25102-0.0148 0.50263-0.0233 0.75448-0.0232zm-0.75448 0.0232c-7.4558 0.44045-14.439 7.3427-14.438 15.977 0 8e-3 5.03e-4 0.0153 5.19e-4 0.0233h1.4748c-1.3e-5 -8e-3 -5.18e-4 -0.0153-5.18e-4 -0.0233-2.7e-5 -8.5489 6.7049-15.531 15.143-15.977zm2.1792 0h0.10284c0.25102-0.0148 0.50263-0.0233 0.75448-0.0232-0.28773 0-0.57332 8e-3 -0.85731 0.0232zm0.10284 0c-7.4558 0.44045-14.439 7.3427-14.438 15.977 0 8e-3 5.03e-4 0.0153 5.19e-4 0.0233h1.4748c-1.4e-5 -8e-3 -5.19e-4 -0.0153-5.19e-4 -0.0233-2.6e-5 -8.5489 6.7049-15.531 15.143-15.977zm2.1792 0h0.10284c0.25102-0.0148 0.50263-0.0233 0.75448-0.0232-0.28773 0-0.57332 8e-3 -0.85731 0.0232zm0.10284 0c-7.4558 0.44045-14.439 7.3427-14.438 15.977 0 8e-3 5.02e-4 0.0153 5.18e-4 0.0233h2.0397c-9.3e-5 -7.7321 6.2681-14 14-14 7.7319 1.9e-4 14 6.2683 14 14h2.0004c3e-5 -8.8366-7.1635-16-16-16zm-4.6669 0h-1.093c-8.8365 0-16 7.1635-16 16h1.9508c-1.3e-5 -8e-3 -5.18e-4 -0.0153-5.18e-4 -0.0233-2.7e-5 -8.5489 6.7049-15.531 15.143-15.977zm4.7734 0.0703c-2.7312 0.2565-5.3459 1.2113-7.5959 2.7652 2.1965-1.5197 4.7907-2.5052 7.5959-2.7652zm-7.9943 3.0489c-0.02237 0.0165-0.04437 0.0335-0.06666 0.0501 0.0223-0.0166 0.04427-0.0336 0.06666-0.0501zm-5.225 6.5986c-0.053 0.12412-0.10421 0.24887-0.154 0.37414-0.04978 0.12527-0.09814 0.2514-0.1447 0.37776-0.04655 0.12635-0.09156 0.25296-0.13487 0.38034-0.43306 1.2736-0.70369 2.5969-0.80564 3.9382 0.10316-1.3682 0.37962-2.6878 0.80564-3.9382 0.04344-0.12752 0.08834-0.25429 0.13487-0.38034 0.04675-0.12664 0.09488-0.25264 0.1447-0.37776 0.04996-0.12548 0.10099-0.25023 0.154-0.37414zm-1.2392 5.0741c-0.02025 0.26729-0.03402 0.53509-0.04082 0.80357 0.0067-0.26965 0.02082-0.53744 0.04082-0.80357z" style="paint-order:normal"/>
   <path d="m94.631 232.01c-0.28773 0-0.57332-8e-3 -0.85731-0.0232h0.10284c0.25102 0.0148 0.50263 0.0233 0.75448 0.0232zm-0.75448-0.0232c-7.4558-0.44045-14.439-7.3427-14.438-15.977 0-8e-3 5.03e-4 -0.0153 5.19e-4 -0.0233h1.4748c-1.3e-5 8e-3 -5.18e-4 0.0153-5.18e-4 0.0233-2.7e-5 8.5489 6.7049 15.531 15.143 15.977zm2.1792 0h0.10284c0.25102 0.0148 0.50263 0.0233 0.75448 0.0232-0.28773 0-0.57332-8e-3 -0.85731-0.0232zm0.10284 0c-7.4558-0.44045-14.439-7.3427-14.438-15.977 0-8e-3 5.03e-4 -0.0153 5.19e-4 -0.0233h1.4748c-1.4e-5 8e-3 -5.19e-4 0.0153-5.19e-4 0.0233-2.6e-5 8.5489 6.7049 15.531 15.143 15.977zm2.1792 0h0.10284c0.25102 0.0148 0.50263 0.0233 0.75448 0.0232-0.28773 0-0.57332-8e-3 -0.85731-0.0232zm0.10284 0c-7.4558-0.44045-14.439-7.3427-14.438-15.977 0-8e-3 5.02e-4 -0.0153 5.18e-4 -0.0233h2.0397c-9.3e-5 7.7321 6.2681 14 14 14 7.7319-1.9e-4 14-6.2683 14-14h2.0004c3e-5 8.8366-7.1635 16-16 16zm-4.6669 0h-1.093c-8.8365 0-16-7.1635-16-16h1.9508c-1.3e-5 8e-3 -5.18e-4 0.0153-5.18e-4 0.0233-2.7e-5 8.5489 6.7049 15.531 15.143 15.977zm4.7734-0.0703c-2.7312-0.2565-5.3459-1.2113-7.5959-2.7652 2.1965 1.5197 4.7907 2.5052 7.5959 2.7652zm-7.9943-3.0489c-0.02237-0.0165-0.04437-0.0335-0.06666-0.0501 0.0223 0.0166 0.04427 0.0336 0.06666 0.0501zm-5.225-6.5986c-0.053-0.12412-0.10421-0.24887-0.154-0.37414-0.04978-0.12527-0.09814-0.2514-0.1447-0.37776-0.04655-0.12635-0.09156-0.25296-0.13487-0.38034-0.43306-1.2736-0.70369-2.5969-0.80564-3.9382 0.10316 1.3682 0.37962 2.6878 0.80564 3.9382 0.04344 0.12752 0.08834 0.25429 0.13487 0.38034 0.04675 0.12664 0.09488 0.25264 0.1447 0.37776 0.04996 0.12548 0.10099 0.25023 0.154 0.37414zm-1.2392-5.0741c-0.02025-0.26729-0.03402-0.53509-0.04082-0.80357 0.0067 0.26965 0.02082 0.53744 0.04082 0.80357z" style="paint-order:normal"/>
  </g>
  <path d="m116.04 215.98a16 16 0 0 1-16 16 16 16 0 0 1-16-16 16 16 0 0 1 16-16 16 16 0 0 1 16 16z" fill="#f00" fill-opacity=".28415" stroke-width="0"/>
 </g>
</svg>
