<?xml version="1.0" encoding="UTF-8"?>
<!-- Created with Inkscape (http://www.inkscape.org/) -->
<svg width="6.1595mm" height="5.6834mm" fill="white" version="1.1" viewBox="0 0 6.1595 5.6834" xmlns="http://www.w3.org/2000/svg">
 <g transform="translate(-34.555 -105.73)">
  <path transform="matrix(.26458 0 0 .26458 34.555 105.73)" d="m18.396 0.0019531a0.94498 0.94498 0 0 0-0.58594 0.27148l-4.7676 4.7559a0.94498 0.94498 0 0 0-0.27344 0.66992v3.8535a0.94498 0.94498 0 0 0 0.94531 0.94531h3.8535a0.94498 0.94498 0 0 0 0.66406-0.27344l4.7676-4.7539a0.94498 0.94498 0 0 0 0-1.3438l-3.8535-3.8535a0.94498 0.94498 0 0 0-0.75-0.27148zm0.085938 2.2812 2.5098 2.5098-3.8164 3.8164h-2.5156v-2.5176l3.8223-3.8086zm-14.982 3.1973c-0.31666 0-0.60495 0.092001-0.86328 0.27539-0.25832 0.18333-0.4371 0.42459-0.53711 0.72461l-2.0996 6v8c0 0.28326 0.095399 0.52114 0.28711 0.71289 0.19167 0.19175 0.42956 0.28711 0.71289 0.28711h1c0.28333 0 0.52122-0.0954 0.71289-0.28711 0.19168-0.19167 0.28711-0.42955 0.28711-0.71289v-1h12v1c0 0.28326 0.095399 0.52114 0.28711 0.71289 0.19167 0.19175 0.42956 0.28711 0.71289 0.28711h1c0.28333 0 0.52122-0.0954 0.71289-0.28711 0.19168-0.19167 0.28711-0.42955 0.28711-0.71289v-7.9902c-0.1803 1e-5 -0.53909 2e-5 -0.54297 0h-1.457v4.9902h-14v-5h8.7793c-1e-4 -0.0214-0.004813-1.1009-0.007813-2h-7.9707l1.0488-3h6.9199v-1.998-0.0019531h-7.2695zm12.949 0.41211a0.94488 0.94488 0 0 0-0.94531 0.94531 0.94488 0.94488 0 0 0 0.94531 0.94531 0.94488 0.94488 0 0 0 0.94336-0.94531 0.94488 0.94488 0 0 0-0.94336-0.94531zm-11.949 7.5879c-0.41667 0-0.77083 0.14582-1.0625 0.4375-0.29166 0.29165-0.4375 0.64584-0.4375 1.0625 0 0.41668 0.14584 0.77085 0.4375 1.0625 0.29167 0.29168 0.64584 0.4375 1.0625 0.4375 0.41667 0 0.77084-0.14582 1.0625-0.4375 0.29167-0.29165 0.4375-0.64582 0.4375-1.0625 0-0.41666-0.14583-0.77085-0.4375-1.0625-0.29166-0.29168-0.64583-0.4375-1.0625-0.4375zm9 0c-0.41667 0-0.77083 0.14582-1.0625 0.4375-0.29166 0.29165-0.4375 0.64584-0.4375 1.0625 0 0.41668 0.14584 0.77085 0.4375 1.0625 0.29167 0.29168 0.64584 0.4375 1.0625 0.4375 0.41667 0 0.77084-0.14582 1.0625-0.4375 0.29167-0.29165 0.4375-0.64582 0.4375-1.0625 0-0.41666-0.14583-0.77085-0.4375-1.0625-0.29166-0.29168-0.64583-0.4375-1.0625-0.4375z" color="#ffffff" stroke-linecap="round" stroke-linejoin="round" stroke-width="3.7795" style="-inkscape-stroke:none"/>
  <path d="m37.333 92.5v0.26458q0 0.11245-0.07607 0.18852-0.07607 0.07607-0.18852 0.07607h-0.26458q-0.11245 0-0.18852-0.07607-0.07607-0.07607-0.07607-0.18852v-2.1167l0.55562-1.5875q0.03969-0.11906 0.14221-0.19182 0.10253-0.07276 0.2282-0.07276h2.9104q0.12568 0 0.2282 0.07276t0.14221 0.19182l0.55562 1.5875v2.1167q0 0.11245-0.07607 0.18852-0.07607 0.07607-0.18852 0.07607h-0.26458q-0.11245 0-0.18852-0.07607-0.07607-0.07607-0.07607-0.18852v-0.26458zm-0.05292-2.3812h3.2808l-0.27781-0.79375h-2.7252zm-0.21167 0.52917v1.3229zm0.66146 1.0583q0.16536 0 0.28112-0.11576 0.11576-0.11576 0.11576-0.28112 0-0.16536-0.11576-0.28112-0.11576-0.11576-0.28112-0.11576-0.16536 0-0.28112 0.11576-0.11576 0.11576-0.11576 0.28112 0 0.16536 0.11576 0.28112t0.28112 0.11576zm2.3812 0q0.16536 0 0.28112-0.11576 0.11576-0.11576 0.11576-0.28112 0-0.16536-0.11576-0.28112-0.11576-0.11576-0.28112-0.11576-0.16536 0-0.28112 0.11576-0.11576 0.11576-0.11576 0.28112 0 0.16536 0.11576 0.28112t0.28112 0.11576zm-3.0427 0.26458h3.7042v-1.3229h-3.7042z" stroke-width=".0066146"/>
  <path d="m54.99 89.32q0.08198 0.08198 0.08198 0.20317 0 0.12119-0.08198 0.20317l-1.2547 1.2547q-0.03923 0.03921-0.09267 0.06238-0.05346 0.02317-0.11406 0.02317h-1.0194q-0.11763 0-0.20139-0.08376-0.08376-0.08376-0.08376-0.20139v-1.0194q0-0.06059 0.02317-0.11406 0.02317-0.05347 0.06238-0.09267l1.2582-1.2547q0.08198-0.08198 0.20139-0.08198 0.11941 0 0.20139 0.08198zm-0.19961 0.20317-1.0194-1.0194-1.2618 1.2582v1.0194h1.0194zm-1.7109 0.90179q0-0.08911-0.06238-0.15149-0.06238-0.06238-0.15149-0.06238-0.08911 0-0.15149 0.06238-0.06237 0.06238-0.06237 0.15149 0 0.08911 0.06237 0.15149 0.06238 0.06238 0.15149 0.06238 0.08911 0 0.15149-0.06238 0.06238-0.06238 0.06238-0.15149z" stroke-width=".0035644"/>
  <circle cx="52.862" cy="90.428" r=".2145" style="paint-order:stroke fill markers"/>
  <g stroke-linejoin="round">
   <path d="m40.873 87.088v2e-3l-1.2637 1.2578c-0.0013 6.61e-4 -0.0026 0.0013-0.0039 2e-3 -0.14016 0.14168-0.21831 0.2471-0.2168 0.44639v1.1044c2e-5 0.19821 0.0025 0.75113 0.0025 0.75113s0.53743-0.0011 0.74746-0.0011h1.0195c0.0013 5e-6 0.18059 5e-6 0.18189 0 0.19722-0.0016 0.20828-0.081 0.3474-0.2207l2e-3 -2e-3 1.2598-1.2559c0.28858-0.2887 0.28858-0.77185 0-1.0605v-2e-3l-1.0195-1.0195c-6.65e-4 -6.69e-4 -0.0013-0.0013-2e-3 -2e-3 -0.28813-0.28486-0.76656-0.28486-1.0547 0z" color="#ffffff" fill="#fff" style="-inkscape-stroke:none;paint-order:stroke fill markers"/>
   <path d="m41.225 87.444-1.2637 1.2578a0.25002 0.25002 0 0 0-0.07227 0.17774v1.0195a0.25002 0.25002 0 0 0 0.25 0.25h1.0195a0.25002 0.25002 0 0 0 0.17578-0.07422l1.2617-1.2578a0.25002 0.25002 0 0 0 0-0.35352l-1.0195-1.0195a0.25002 0.25002 0 0 0-0.35156 0zm0.17578 0.5293 0.66602 0.66797-1.0117 1.0078h-0.66602v-0.66602z" color="#ffffff" style="-inkscape-stroke:none;paint-order:stroke fill markers"/>
  </g>
  <g transform="translate(-4.1944 12.448)">
   <path d="m41.225 87.444-1.2637 1.2578a0.25002 0.25002 0 0 0-0.07227 0.17774v1.0195a0.25002 0.25002 0 0 0 0.25 0.25h1.0195a0.25002 0.25002 0 0 0 0.17578-0.07422l1.2617-1.2578a0.25002 0.25002 0 0 0 0-0.35352l-1.0195-1.0195a0.25002 0.25002 0 0 0-0.35156 0zm0.17578 0.5293 0.66602 0.66797-1.0117 1.0078h-0.66602v-0.66602z" color="#ffffff" stroke-linejoin="round" style="-inkscape-stroke:none;paint-order:stroke fill markers"/>
  </g>
  <path d="m48.022 108.4-4e-5 -1.0193 1.2619-1.2583 1.0196 1.0196-1.2619 1.2578z" fill="fff" stroke="#000" stroke-linecap="round" stroke-linejoin="round" stroke-width=".5"/>
  <path d="m45.32 107.32c-0.08378 0-0.16006 0.0243-0.22841 0.0729-0.06835 0.0485-0.11565 0.11234-0.14211 0.19172l-0.55552 1.5875v2.1167c0 0.075 0.02524 0.13789 0.07597 0.18862 0.05071 0.0507 0.11365 0.076 0.18862 0.076h0.26458c0.07496 0 0.13791-0.0252 0.18862-0.076 0.05072-0.0507 0.07596-0.11365 0.07596-0.18862v-0.26458h3.175v0.26458c0 0.075 0.02524 0.13789 0.07597 0.18862 0.05071 0.0507 0.11365 0.076 0.18862 0.076h0.26458c0.07496 0 0.13791-0.0252 0.18862-0.076 0.05072-0.0507 0.07596-0.11365 0.07596-0.18862v-2.1141c-0.0477 0-0.14263 1e-5 -0.14366 0h-0.3855v1.3203h-3.7042v-1.3229h2.3229c-2.6e-5 -6e-3 -0.0013-0.29128-0.0021-0.52917h-2.1089l0.2775-0.79375h1.8309v-0.52865c0-1.8e-4 3e-6 -2.6e-4 0-5.3e-4zm0.26458 2.1167c-0.11024 0-0.20395 0.0386-0.28112 0.11576-0.07717 0.0772-0.11576 0.17087-0.11576 0.28112 0 0.11024 0.03859 0.20395 0.11576 0.28112 0.07717 0.0772 0.17088 0.11575 0.28112 0.11575 0.11024 0 0.20395-0.0386 0.28112-0.11575 0.07717-0.0772 0.11576-0.17088 0.11576-0.28112 0-0.11025-0.03858-0.20396-0.11576-0.28112-0.07717-0.0772-0.17088-0.11576-0.28112-0.11576zm2.3812 0c-0.11024 0-0.20395 0.0386-0.28112 0.11576-0.07717 0.0772-0.11576 0.17087-0.11576 0.28112 0 0.11024 0.03859 0.20395 0.11576 0.28112 0.07717 0.0772 0.17088 0.11575 0.28112 0.11575 0.11024 0 0.20395-0.0386 0.28112-0.11575 0.07717-0.0772 0.11576-0.17088 0.11576-0.28112 0-0.11025-0.03858-0.20396-0.11576-0.28112-0.07717-0.0772-0.17088-0.11576-0.28112-0.11576z" stroke-width=".0066146"/>
  <circle cx="48.746" cy="107.68" r=".25" style="paint-order:stroke fill markers"/>
 </g>
</svg>
